<mxfile host="app.diagrams.net" agent="Mozilla/5.0 (Windows NT 10.0; Win64; x64) AppleWebKit/537.36 (KHTML, like Gecko) Chrome/131.0.0.0 Safari/537.36 Edg/131.0.0.0" version="24.9.1">
  <diagram name="第 1 页" id="4Z0Ka_Te9Ri8-RzgAn7T">
    <mxGraphModel dx="449" dy="268" grid="0" gridSize="10" guides="1" tooltips="1" connect="1" arrows="1" fold="1" page="1" pageScale="1" pageWidth="827" pageHeight="1169" math="0" shadow="0">
      <root>
        <mxCell id="0" />
        <mxCell id="1" parent="0" />
        <mxCell id="ilZPSHY-V1277pjvOUdr-3" style="edgeStyle=orthogonalEdgeStyle;rounded=0;orthogonalLoop=1;jettySize=auto;html=1;exitX=0.5;exitY=1;exitDx=0;exitDy=0;entryX=0.5;entryY=0;entryDx=0;entryDy=0;" edge="1" parent="1" source="ilZPSHY-V1277pjvOUdr-1" target="ilZPSHY-V1277pjvOUdr-2">
          <mxGeometry relative="1" as="geometry" />
        </mxCell>
        <mxCell id="ilZPSHY-V1277pjvOUdr-1" value="开始" style="rounded=1;whiteSpace=wrap;html=1;fontSize=10;" vertex="1" parent="1">
          <mxGeometry x="277.5" y="22" width="51" height="18" as="geometry" />
        </mxCell>
        <mxCell id="ilZPSHY-V1277pjvOUdr-8" value="" style="edgeStyle=orthogonalEdgeStyle;rounded=0;orthogonalLoop=1;jettySize=auto;html=1;" edge="1" parent="1" source="ilZPSHY-V1277pjvOUdr-2" target="ilZPSHY-V1277pjvOUdr-7">
          <mxGeometry relative="1" as="geometry" />
        </mxCell>
        <mxCell id="ilZPSHY-V1277pjvOUdr-2" value="用户申请访问报表" style="rounded=0;whiteSpace=wrap;html=1;fontSize=10;" vertex="1" parent="1">
          <mxGeometry x="250" y="56" width="106" height="18" as="geometry" />
        </mxCell>
        <mxCell id="ilZPSHY-V1277pjvOUdr-12" value="" style="edgeStyle=orthogonalEdgeStyle;rounded=0;orthogonalLoop=1;jettySize=auto;html=1;" edge="1" parent="1" source="ilZPSHY-V1277pjvOUdr-7" target="ilZPSHY-V1277pjvOUdr-11">
          <mxGeometry relative="1" as="geometry" />
        </mxCell>
        <mxCell id="ilZPSHY-V1277pjvOUdr-13" value="否" style="edgeLabel;html=1;align=center;verticalAlign=middle;resizable=0;points=[];fontSize=9;" vertex="1" connectable="0" parent="ilZPSHY-V1277pjvOUdr-12">
          <mxGeometry x="-0.1471" y="1" relative="1" as="geometry">
            <mxPoint as="offset" />
          </mxGeometry>
        </mxCell>
        <mxCell id="ilZPSHY-V1277pjvOUdr-29" style="edgeStyle=orthogonalEdgeStyle;rounded=0;orthogonalLoop=1;jettySize=auto;html=1;exitX=0.5;exitY=1;exitDx=0;exitDy=0;" edge="1" parent="1" source="ilZPSHY-V1277pjvOUdr-7" target="ilZPSHY-V1277pjvOUdr-28">
          <mxGeometry relative="1" as="geometry" />
        </mxCell>
        <mxCell id="ilZPSHY-V1277pjvOUdr-30" value="是" style="edgeLabel;html=1;align=center;verticalAlign=middle;resizable=0;points=[];fontSize=9;" vertex="1" connectable="0" parent="ilZPSHY-V1277pjvOUdr-29">
          <mxGeometry x="-0.265" y="-2" relative="1" as="geometry">
            <mxPoint as="offset" />
          </mxGeometry>
        </mxCell>
        <mxCell id="ilZPSHY-V1277pjvOUdr-7" value="报表是否已经存在" style="rhombus;whiteSpace=wrap;html=1;fontSize=10;rounded=0;" vertex="1" parent="1">
          <mxGeometry x="247.25" y="97.5" width="111.5" height="36" as="geometry" />
        </mxCell>
        <mxCell id="ilZPSHY-V1277pjvOUdr-23" style="edgeStyle=orthogonalEdgeStyle;rounded=0;orthogonalLoop=1;jettySize=auto;html=1;entryX=1;entryY=0.5;entryDx=0;entryDy=0;" edge="1" parent="1" source="ilZPSHY-V1277pjvOUdr-11" target="ilZPSHY-V1277pjvOUdr-17">
          <mxGeometry relative="1" as="geometry">
            <mxPoint x="378" y="188.25" as="targetPoint" />
            <mxPoint x="448.51428571428573" y="160" as="sourcePoint" />
            <Array as="points">
              <mxPoint x="448" y="182" />
              <mxPoint x="448" y="235" />
            </Array>
          </mxGeometry>
        </mxCell>
        <mxCell id="ilZPSHY-V1277pjvOUdr-11" value="在BI Portal 创建报表" style="whiteSpace=wrap;html=1;fontSize=10;rounded=0;" vertex="1" parent="1">
          <mxGeometry x="400" y="136" width="95" height="17.75" as="geometry" />
        </mxCell>
        <mxCell id="ilZPSHY-V1277pjvOUdr-20" value="" style="edgeStyle=orthogonalEdgeStyle;rounded=0;orthogonalLoop=1;jettySize=auto;html=1;exitX=0.5;exitY=1;exitDx=0;exitDy=0;" edge="1" parent="1" source="ilZPSHY-V1277pjvOUdr-17" target="ilZPSHY-V1277pjvOUdr-19">
          <mxGeometry relative="1" as="geometry">
            <mxPoint x="303" y="239" as="targetPoint" />
          </mxGeometry>
        </mxCell>
        <mxCell id="ilZPSHY-V1277pjvOUdr-21" value="是" style="edgeLabel;html=1;align=center;verticalAlign=middle;resizable=0;points=[];" vertex="1" connectable="0" parent="ilZPSHY-V1277pjvOUdr-20">
          <mxGeometry x="-0.4685" relative="1" as="geometry">
            <mxPoint as="offset" />
          </mxGeometry>
        </mxCell>
        <mxCell id="ilZPSHY-V1277pjvOUdr-25" value="" style="edgeStyle=orthogonalEdgeStyle;rounded=0;orthogonalLoop=1;jettySize=auto;html=1;" edge="1" parent="1" source="ilZPSHY-V1277pjvOUdr-17" target="ilZPSHY-V1277pjvOUdr-24">
          <mxGeometry relative="1" as="geometry" />
        </mxCell>
        <mxCell id="ilZPSHY-V1277pjvOUdr-26" value="否" style="edgeLabel;html=1;align=center;verticalAlign=middle;resizable=0;points=[];" vertex="1" connectable="0" parent="ilZPSHY-V1277pjvOUdr-25">
          <mxGeometry x="-0.2881" relative="1" as="geometry">
            <mxPoint as="offset" />
          </mxGeometry>
        </mxCell>
        <mxCell id="ilZPSHY-V1277pjvOUdr-17" value="新报表是否已经有合适的用户组" style="rhombus;whiteSpace=wrap;html=1;fontSize=10;rounded=0;" vertex="1" parent="1">
          <mxGeometry x="225" y="244" width="146" height="27" as="geometry" />
        </mxCell>
        <mxCell id="ilZPSHY-V1277pjvOUdr-19" value="将用户加入用户组" style="whiteSpace=wrap;html=1;fontSize=10;rounded=0;" vertex="1" parent="1">
          <mxGeometry x="251.5" y="311" width="93" height="22" as="geometry" />
        </mxCell>
        <mxCell id="ilZPSHY-V1277pjvOUdr-24" value="" style="whiteSpace=wrap;html=1;fontSize=10;rounded=0;" vertex="1" parent="1">
          <mxGeometry x="98" y="247.5" width="95" height="20" as="geometry" />
        </mxCell>
        <mxCell id="ilZPSHY-V1277pjvOUdr-32" style="edgeStyle=orthogonalEdgeStyle;rounded=0;orthogonalLoop=1;jettySize=auto;html=1;exitX=0.5;exitY=1;exitDx=0;exitDy=0;" edge="1" parent="1" source="ilZPSHY-V1277pjvOUdr-28" target="ilZPSHY-V1277pjvOUdr-17">
          <mxGeometry relative="1" as="geometry" />
        </mxCell>
        <mxCell id="ilZPSHY-V1277pjvOUdr-33" value="是" style="edgeLabel;html=1;align=center;verticalAlign=middle;resizable=0;points=[];" vertex="1" connectable="0" parent="ilZPSHY-V1277pjvOUdr-32">
          <mxGeometry x="-0.3788" y="-3" relative="1" as="geometry">
            <mxPoint as="offset" />
          </mxGeometry>
        </mxCell>
        <mxCell id="ilZPSHY-V1277pjvOUdr-35" value="" style="edgeStyle=orthogonalEdgeStyle;rounded=0;orthogonalLoop=1;jettySize=auto;html=1;" edge="1" parent="1" source="ilZPSHY-V1277pjvOUdr-28" target="ilZPSHY-V1277pjvOUdr-34">
          <mxGeometry relative="1" as="geometry" />
        </mxCell>
        <mxCell id="ilZPSHY-V1277pjvOUdr-36" value="否" style="edgeLabel;html=1;align=center;verticalAlign=middle;resizable=0;points=[];" vertex="1" connectable="0" parent="ilZPSHY-V1277pjvOUdr-35">
          <mxGeometry x="-0.0505" relative="1" as="geometry">
            <mxPoint as="offset" />
          </mxGeometry>
        </mxCell>
        <mxCell id="ilZPSHY-V1277pjvOUdr-28" value="用户是否需要基于用户组角色访问报表" style="rhombus;whiteSpace=wrap;html=1;fontSize=10;rounded=0;" vertex="1" parent="1">
          <mxGeometry x="208.5" y="170" width="189" height="27" as="geometry" />
        </mxCell>
        <mxCell id="ilZPSHY-V1277pjvOUdr-34" value="将用户" style="whiteSpace=wrap;html=1;fontSize=10;rounded=0;" vertex="1" parent="1">
          <mxGeometry x="40" y="171.25" width="113" height="24.5" as="geometry" />
        </mxCell>
      </root>
    </mxGraphModel>
  </diagram>
</mxfile>
